<?xml version="1.0" standalone="no"?>
<!DOCTYPE svg PUBLIC "-//W3C//DTD SVG 20010904//EN"
 "http://www.w3.org/TR/2001/REC-SVG-20010904/DTD/svg10.dtd">
<svg version="1.0" xmlns="http://www.w3.org/2000/svg"
 width="180.000000pt" height="180.000000pt" viewBox="0 0 180.000000 180.000000"
 preserveAspectRatio="xMidYMid meet">

<g transform="translate(0.000000,180.000000) scale(0.100000,-0.100000)"
fill="#000000" stroke="none">
<path d="M525 1420 c-215 -73 -323 -114 -332 -126 -10 -16 -7 -44 18 -159 16
-77 45 -216 65 -310 19 -93 39 -186 44 -207 9 -30 50 -70 261 -255 137 -120
259 -222 270 -227 14 -7 28 -3 54 15 49 36 488 418 501 438 7 9 24 86 39 171
15 85 42 229 61 318 37 179 40 214 22 230 -19 14 -643 222 -665 221 -10 -1
-162 -50 -338 -109z m345 3 c0 -13 -3 -13 -15 -3 -8 7 -12 16 -9 21 8 13 24 1
24 -18z m-50 -14 c0 -11 -12 -11 -35 -3 -12 5 -14 9 -4 14 14 9 39 2 39 -11z
m53 -16 c3 -5 -5 -8 -18 -8 -13 0 -21 3 -18 8 2 4 10 7 18 7 8 0 16 -3 18 -7z
m34 -39 c-3 -3 -12 -4 -19 -1 -8 3 -5 6 6 6 11 1 17 -2 13 -5z m-96 -55 c18
-18 26 -20 40 -11 13 9 19 8 23 -4 8 -22 -41 -39 -76 -26 -15 6 -36 8 -47 5
-11 -3 -28 0 -38 7 -16 10 -14 11 9 6 15 -4 30 -2 33 4 3 5 0 10 -7 10 -8 1
-6 6 6 15 26 20 32 19 57 -6z m99 -58 c0 -6 -4 -13 -10 -16 -5 -3 -10 1 -10 9
0 9 5 16 10 16 6 0 10 -4 10 -9z m113 -872 c-9 -9 -12 -7 -10 9 1 14 5 18 11
12 7 -7 6 -14 -1 -21z"/>
</g>
</svg>
